HIERARCHY
ROOT pelvis
{
	OFFSET -0.001795 -0.223333 0.028219
	CHANNELS 6 Xposition Yposition Zposition Zrotation Xrotation Yrotation
	JOINT spine1
	{
		OFFSET -0.002533 0.108963 -0.026696
		CHANNELS 3 Zrotation Xrotation Yrotation
		JOINT spine2
		{
			OFFSET 0.005487 0.135180 0.001092
			CHANNELS 3 Zrotation Xrotation Yrotation
			JOINT spine3
			{
				OFFSET 0.001457 0.052922 0.025425
				CHANNELS 3 Zrotation Xrotation Yrotation
				JOINT right_collar
				{
					OFFSET -0.081759 0.118833 -0.038615
					CHANNELS 3 Zrotation Xrotation Yrotation
					JOINT right_shoulder
					{
						OFFSET -0.096012 0.032551 -0.009144
						CHANNELS 3 Zrotation Xrotation Yrotation
						JOINT right_elbow
						{
							OFFSET -0.253742 -0.013329 -0.021400
							CHANNELS 3 Zrotation Xrotation Yrotation
							JOINT right_wrist
							{
								OFFSET -0.255299 0.007773 -0.005560
								CHANNELS 3 Zrotation Xrotation Yrotation
								End Site rpinky
								{
									OFFSET -0.132839 -0.013308 -0.070535
								}
								End Site rring
								{
									OFFSET -0.170050 -0.004601 -0.041005
								}
								End Site rmiddle
								{
									OFFSET -0.187762 -0.001626 -0.011538
								}
								End Site rindex
								{
									OFFSET -0.178543 -0.006168 0.026017
								}
								End Site rthumb
								{
									OFFSET -0.097521 -0.023151 0.093138
								}
								End Site right_index1
								{
									OFFSET -0.084621 -0.006118 -0.010315
								}
							}
						}
					}
				}
				JOINT left_collar
				{
					OFFSET 0.078845 0.121750 -0.034090
					CHANNELS 3 Zrotation Xrotation Yrotation
					JOINT left_shoulder
					{
						OFFSET 0.090977 0.030469 -0.008868
						CHANNELS 3 Zrotation Xrotation Yrotation
						JOINT left_elbow
						{
							OFFSET 0.259612 -0.012772 -0.027456
							CHANNELS 3 Zrotation Xrotation Yrotation
							JOINT left_wrist
							{
								OFFSET 0.249234 0.008986 -0.001171
								CHANNELS 3 Zrotation Xrotation Yrotation
								End Site lpinky
								{
									OFFSET 0.134809 -0.014322 -0.071885
								}
								End Site lring
								{
									OFFSET 0.172999 -0.005447 -0.041618
								}
								End Site lmiddle
								{
									OFFSET 0.191833 -0.002759 -0.012728
								}
								End Site lindex
								{
									OFFSET 0.182203 -0.006562 0.025221
								}
								End Site lthumb
								{
									OFFSET 0.104743 -0.021598 0.088013
								}
								End Site left_index1
								{
									OFFSET 0.084042 -0.008162 -0.014946
								}
							}
						}
					}
				}
				JOINT neck
				{
					OFFSET -0.002778 0.213871 -0.042857
					CHANNELS 3 Zrotation Xrotation Yrotation
					JOINT head
					{
						OFFSET 0.005152 0.064969 0.051349
						CHANNELS 3 Zrotation Xrotation Yrotation
						End Site lear
						{
							OFFSET 0.069154 0.068554 -0.028944
						}
						End Site rear
						{
							OFFSET -0.077038 0.065916 -0.031074
						}
						End Site leye
						{
							OFFSET 0.029363 0.095361 0.062678
						}
						End Site reye
						{
							OFFSET -0.037212 0.094865 0.061121
						}
						End Site nose
						{
							OFFSET -0.003764 0.060070 0.100377
						}
					}
				}
			}
		}
	}
	JOINT right_hip
	{
		OFFSET -0.067671 -0.090522 -0.004320
		CHANNELS 3 Zrotation Xrotation Yrotation
		JOINT right_knee
		{
			OFFSET -0.038290 -0.382569 -0.008850
			CHANNELS 3 Zrotation Xrotation Yrotation
			JOINT right_ankle
			{
				OFFSET 0.015774 -0.398415 -0.042312
				CHANNELS 3 Zrotation Xrotation Yrotation
				End Site RHeel
				{
					OFFSET -0.008381 -0.042855 -0.057845
				}
				End Site RSmallToe
				{
					OFFSET -0.060800 -0.059704 0.149275
				}
				End Site RBigToe
				{
					OFFSET 0.014577 -0.052963 0.193722
				}
				End Site right_foot
				{
					OFFSET -0.025372 -0.048144 0.123348
				}
			}
		}
	}
	JOINT left_hip
	{
		OFFSET 0.069520 -0.091407 -0.006815
		CHANNELS 3 Zrotation Xrotation Yrotation
		JOINT left_knee
		{
			OFFSET 0.034276 -0.375198 -0.004496
			CHANNELS 3 Zrotation Xrotation Yrotation
			JOINT left_ankle
			{
				OFFSET -0.013595 -0.397961 -0.043693
				CHANNELS 3 Zrotation Xrotation Yrotation
				End Site LHeel
				{
					OFFSET 0.009471 -0.033909 -0.060817
				}
				End Site LSmallToe
				{
					OFFSET 0.063119 -0.063840 0.145857
				}
				End Site LBigToe
				{
					OFFSET -0.006473 -0.056735 0.193718
				}
				End Site left_foot
				{
					OFFSET 0.026358 -0.055791 0.119288
				}
			}
		}
	}
}
MOTION
Frames: 16
Frame Time: 0.03333
-0.156596 0.122833 2.922159 176.207535 -5.285269 160.020477 17.987139 28.905693 -6.040440 175.661041 -162.913040 -177.946838 178.920471 164.152649 175.420792 175.701385 178.696899 -176.971054 9.036951 -0.733237 1.015200 162.028946 -179.724854 -174.745392 -0.000000 0.000000 -0.000000 4.580473 4.220887 -13.098610 165.406006 -179.356125 168.659912 32.097290 -4.704360 -19.346174 -0.000000 0.000000 -0.000000 2.686296 -22.041283 0.200739 178.998398 -169.065079 -163.958572 174.445236 -143.050354 -177.891037 17.879107 52.926083 -8.133574 167.904022 -169.153992 159.792816 4.397128 -17.719267 -0.997081 140.947006 121.641357 -157.050949 9.702296 7.068411 25.492010
-0.156596 0.122853 2.922579 176.223038 -5.278729 160.059525 18.064569 28.951494 -6.071487 175.572006 -162.873825 -177.915283 178.989380 164.161789 175.324066 175.665115 178.667892 -176.880814 9.091449 -0.739779 0.926052 162.006912 -179.725082 -174.751419 -0.000000 0.000000 -0.000000 4.586428 4.216081 -13.082502 165.396866 -179.356888 168.649689 32.112087 -4.710365 -19.359505 -0.000000 0.000000 -0.000000 2.653228 -22.005713 0.219531 179.041336 -168.994186 -163.984070 174.458954 -143.067673 -177.887711 17.874634 52.930367 -8.131541 167.898209 -169.152008 159.782898 4.259763 -17.472353 -1.003254 141.397552 121.727646 -157.380615 9.801446 6.816496 25.467670
-0.156190 0.122463 2.926475 176.144409 -4.959762 159.511124 18.523075 28.374502 -6.072826 175.608780 -162.883377 -177.928314 178.947495 164.956329 175.442902 174.888809 178.455978 -176.315384 8.890521 -0.694404 2.101701 160.521973 -179.558350 -173.823975 -0.000000 0.000000 -0.000000 3.206082 3.952439 -12.072914 162.416855 -179.058762 171.309341 27.547262 -5.152217 -25.123367 -0.000000 0.000000 -0.000000 1.956759 -21.322819 0.626431 179.214172 -169.637268 -163.553680 173.710068 -143.157104 -178.127472 19.353844 51.953640 -8.848866 168.080399 -169.455078 159.935455 5.622650 -24.073553 -1.097571 128.715439 114.804611 -145.459579 8.210774 9.170576 24.289951
-0.154537 0.119896 2.924982 175.910690 -4.599972 158.681595 19.362352 28.352026 -6.295129 175.493317 -162.921906 -177.887207 178.033768 165.884644 177.434128 175.553589 178.679596 -176.944473 12.077221 -0.699689 5.922965 152.100449 -177.114502 -163.879883 -0.000000 0.000000 -0.000000 0.396700 2.868460 -8.596789 145.690445 -175.553375 -177.058792 0.309216 1.206736 -35.056267 -0.000000 0.000000 -0.000000 1.541949 -20.737997 0.849887 178.371384 -170.097031 -163.420761 170.226364 -143.815598 -179.228012 25.986536 48.247765 -11.897499 168.722900 -171.686417 159.686584 4.535909 -27.331230 -1.495093 129.780762 111.538277 -144.697723 9.374213 5.823436 23.703533
-0.153017 0.116282 2.932476 175.900024 -4.450767 158.383530 19.867588 29.111191 -6.606660 174.719910 -163.346176 -177.608322 176.835739 165.875519 179.307114 178.900726 178.863861 -176.849472 15.838909 -0.511600 9.512367 146.998062 -172.784668 -150.315582 -0.000000 0.000000 -0.000000 176.424057 176.275009 168.914764 137.112976 -175.172989 -179.531052 178.476074 178.761536 155.143631 -0.000000 0.000000 -0.000000 2.861539 -19.689632 -0.218982 176.279831 -170.627777 -161.443710 163.253174 -144.596237 178.677032 39.760231 44.473557 -18.266741 169.350586 -176.808655 157.123779 9.159718 -36.272900 -0.530465 131.938919 112.320389 -146.763046 12.297709 0.066375 24.776285
-0.151454 0.113126 2.931578 176.157425 -4.451194 158.070343 18.643993 33.400612 -7.211973 172.604401 -165.068298 -176.804398 173.215744 166.492340 -176.894623 8.177140 1.861971 6.343978 22.075071 -0.770571 7.721879 140.337769 -169.100204 -144.728607 -0.000000 0.000000 -0.000000 164.064987 176.941010 170.536179 140.177536 -178.071472 172.303284 179.660583 179.504990 167.318253 -0.000000 0.000000 -0.000000 5.595549 -19.199165 -2.251442 175.181793 -167.530670 -166.036652 155.786697 -146.584839 176.682343 52.125683 37.463055 -21.918411 164.706665 179.051956 143.388351 15.619715 -44.288216 1.932681 150.637543 122.774689 -163.702271 10.552385 4.078502 24.604156
-0.149031 0.112921 2.899644 176.538651 -3.493068 156.902725 15.094608 33.666122 -6.135472 173.719818 -168.138885 -177.168655 171.709579 171.328979 -176.669968 14.977686 3.786279 10.781422 26.583916 -0.519056 9.525457 145.294815 -171.471359 -147.368561 -0.000000 0.000000 -0.000000 158.589249 175.814896 168.445206 139.896332 -176.987946 175.743973 0.546343 0.457861 -14.486004 -0.000000 0.000000 -0.000000 3.052272 -13.721303 -1.054832 174.836823 -169.003983 -165.094437 151.655396 -149.498718 175.984680 59.061722 34.974182 -24.178883 161.722534 175.436951 133.054001 27.257259 -49.765621 7.561389 155.411255 137.233597 -169.568954 0.980573 22.796099 22.084044
-0.147003 0.113220 2.875381 177.034668 -2.278112 156.210449 12.564128 34.323357 -5.440632 174.515198 -170.116852 -177.463135 171.948273 173.524185 -175.538895 17.477169 4.199927 11.530413 25.400505 -0.511635 9.563213 147.048416 -172.574814 -149.513214 -0.000000 0.000000 -0.000000 156.178970 176.335800 169.412292 140.664856 -177.274460 174.990906 0.800056 0.467747 -15.872047 -0.000000 0.000000 -0.000000 3.396723 -12.646225 -1.430584 174.956497 -169.290253 -165.209000 150.758698 -150.550903 175.932861 60.972355 35.901245 -25.611879 160.342285 177.279465 132.606277 31.038954 -48.913204 9.128517 150.829239 138.380447 -167.562653 2.877966 19.377729 22.742289
-0.146309 0.118583 2.839576 177.555573 -2.060207 156.639160 8.776024 34.788036 -4.283259 174.405518 -173.159149 -177.385086 171.490921 176.277557 -173.665268 19.640038 7.079519 16.791239 31.319014 0.217542 12.817373 148.141449 -171.132034 -143.127167 -0.000000 0.000000 -0.000000 156.734329 173.626312 164.699966 139.098526 -178.121109 172.006454 0.575547 0.549964 -17.513964 -0.000000 0.000000 -0.000000 2.688921 -11.740561 -0.997715 177.403580 -169.430756 -167.913452 150.151627 -154.992401 176.552155 58.669250 34.849503 -23.923306 157.675293 178.229477 128.741119 35.100975 -49.522316 11.156513 151.947968 143.843170 -169.297897 4.228462 14.610499 20.551872
-0.145388 0.129730 2.800108 178.031891 -2.020361 157.346252 3.881425 35.264690 -2.740094 173.576004 -176.919998 -176.964783 173.958832 -179.989334 -172.076813 19.839531 10.159480 22.442516 34.619530 2.502271 21.343142 152.873886 -172.876968 -144.049515 -0.000000 0.000000 -0.000000 156.237869 171.466888 161.037292 138.338028 -179.528336 167.596802 177.773483 178.881149 159.853867 -0.000000 0.000000 -0.000000 1.111523 -10.984062 0.110533 0.496324 -13.444238 10.014774 149.938675 -158.734421 177.152985 58.276657 37.509422 -25.047979 156.351013 -176.866592 131.826111 36.509495 -50.371513 12.057525 148.721191 142.346176 -167.513855 5.710420 6.717015 16.652222
-0.145648 0.144785 2.752476 178.741974 -3.024999 160.219574 177.393768 142.418137 179.327866 172.876755 179.951477 -176.579315 176.631805 -177.611191 -170.387497 23.204908 12.524377 25.671558 41.767708 2.915915 20.171677 162.287903 -177.379501 -156.146652 -0.000000 0.000000 -0.000000 157.991425 167.237991 153.202499 142.078659 179.036499 162.608826 175.548264 178.540497 160.443085 -0.000000 0.000000 -0.000000 2.909670 -16.299932 -0.657812 2.223969 -17.287891 8.645462 152.753601 -159.053360 177.675552 58.060230 41.760059 -27.047817 156.337540 -174.387390 134.275864 38.119030 -54.512157 14.096938 142.900299 139.144730 -163.871979 8.181682 1.567784 17.922297
-0.148986 0.167070 2.725934 179.614090 -3.011673 161.607025 170.399292 143.831161 -178.309036 171.376251 178.918915 -175.826797 1.692621 -4.791989 10.554363 17.799793 16.512178 35.086338 30.020409 6.060413 39.734093 171.487793 -179.496033 -164.353012 -0.000000 0.000000 -0.000000 162.100525 167.114120 151.485443 138.179413 178.081741 160.308685 12.403302 -2.648105 -36.224785 -0.000000 0.000000 -0.000000 2.501187 -14.732332 -0.534555 4.475999 -17.722399 8.984715 155.620743 -164.612717 178.800217 38.802185 56.198635 -21.606678 169.019333 -176.470459 156.691544 47.772724 -62.954739 22.969225 133.898575 127.989403 -154.913101 7.091235 4.062339 17.534126
-0.152743 0.186273 2.714718 0.408855 -177.445038 -17.038786 168.852478 144.181702 -177.813538 171.046967 179.169205 -175.674271 4.286268 -4.431488 10.703075 16.818787 16.664705 35.899113 28.937071 5.902205 40.401127 171.167648 -179.435684 -163.859756 -0.000000 0.000000 -0.000000 160.878616 167.982681 153.580963 137.773819 177.462234 158.538757 10.995592 -2.177818 -35.992661 -0.000000 0.000000 -0.000000 2.311879 -14.206349 -0.452240 5.279285 -17.352953 8.600958 158.710190 -165.709900 179.248016 32.073116 57.091286 -17.582899 171.654892 -178.774506 160.613800 47.765331 -65.748093 24.244677 131.402924 121.972107 -150.733215 7.178298 2.103119 16.277121
-0.157896 0.207020 2.707948 1.849219 -177.412140 -15.976640 165.807861 144.845856 -176.863968 169.975952 -178.698486 -175.238464 5.095409 -2.315243 11.328506 13.226548 18.104692 40.923985 28.982042 6.610424 43.559586 177.090012 179.881119 -168.968842 -0.000000 0.000000 -0.000000 161.419418 167.103622 151.727478 137.846817 176.843155 156.660507 5.092142 -0.112215 -16.108923 -0.000000 0.000000 -0.000000 5.741766 -14.996190 -2.902408 6.301517 -16.789392 9.037018 163.383942 -167.460785 179.811020 24.278347 65.172379 -14.299719 171.402756 -177.512863 161.051529 51.772991 -69.418564 28.907911 139.556320 119.035278 -155.167221 5.371903 2.975480 13.143188
-0.161493 0.222529 2.679942 3.433550 -177.556870 -13.890047 163.130112 145.343979 -176.047485 168.481812 -176.640686 -174.637283 7.733218 -2.126732 12.955567 15.474532 18.048477 39.360176 31.952532 7.569598 43.610912 3.042043 0.448783 9.024496 -0.000000 0.000000 -0.000000 159.644592 167.241852 152.637299 136.610641 177.795883 159.816772 3.025928 0.045287 -3.226183 -0.000000 0.000000 -0.000000 8.530947 -15.143153 -4.958581 4.531860 -14.770788 6.798579 167.259705 -169.526840 -179.826981 24.749792 69.178123 -15.505431 171.707779 -179.419250 160.204361 49.320728 -73.369194 29.135750 148.427979 111.667381 -159.122986 2.810760 4.881480 8.889398
-0.168384 0.235642 2.675378 5.077618 -178.580933 -12.002898 160.221298 148.382721 -175.543274 166.417328 -173.933899 -173.869522 11.472153 -1.386321 19.286274 14.725665 15.047966 33.835835 37.849754 9.538551 43.788544 8.082377 0.910542 10.718592 -0.000000 0.000000 -0.000000 156.157227 169.358856 157.434952 136.138016 -179.857895 166.669647 16.381544 -0.132070 -1.948788 -0.000000 0.000000 -0.000000 11.714035 -13.013058 -7.655736 2.248992 -14.618985 3.358292 171.726654 -171.877319 -179.584717 27.685629 68.910629 -17.649559 168.556717 -177.294586 155.018250 42.776817 -73.519104 24.146887 148.796524 104.700195 -157.291168 2.762073 1.919154 6.928250
